/* XPM */
static char * abs_xpm[] = {
"32 32 6 1",
" 	c None",
".	c #800080",
"+	c #000000",
"@	c #DDDDDD",
"#	c #BBBBBB",
"$	c #111111",
"                                ",
"                                ",
"  ..                        ..  ",
"  ..                        ..  ",
"  ..                        ..  ",
"  ..                        ..  ",
"  ..                        ..  ",
"  ..                        ..  ",
"  ..        ++++     +++    ..  ",
"  ..      @++++++  ++++++   ..  ",
"  ..      ++   ++ +++  +++  ..  ",
"  ..     ++    #++++  ++++  ..  ",
"  ..     +     #+++   ++++  ..  ",
"  ..     +     +++     ++   ..  ",
"  ..           ++$          ..  ",
"  ..           +++          ..  ",
"  ..           ++           ..  ",
"  ..          +++           ..  ",
"  ..          $++           ..  ",
"  ..   ++     +++     +     ..  ",
"  ..  ++++   +++#     +     ..  ",
"  ..  ++++  ++++#    ++     ..  ",
"  ..  +++  +++ ++   ++      ..  ",
"  ..   ++++++  ++++++@      ..  ",
"  ..    +++     ++++        ..  ",
"  ..                        ..  ",
"  ..                        ..  ",
"  ..                        ..  ",
"  ..                        ..  ",
"  ..                        ..  ",
"                                ",
"                                "};
