/* XPM */
static char * calculate_xpm[] = {
"32 32 3 1",
" 	c None",
".	c None",
"+	c #FF0000",
"................................",
"................................",
"................................",
"................................",
"................................",
"................................",
"................................",
"................................",
"................................",
"................................",
"................................",
"................................",
".....++...++....+.....+.....+...",
"......+...+.....+.....+.....+...",
".......+.+......+......+...+....",
"........+....+++++++...+...+....",
"........+.......+.......+..+....",
".......+.+......+.......+.+.....",
"......+...+.....+........++.....",
".....++...++.............+......",
".........................+......",
"........................++......",
".......................++.......",
"................................",
"................................",
"................................",
"................................",
"................................",
"................................",
"................................",
"................................",
"................................"};
