/* XPM */
static char * chooseratio_xpm[] = {
"32 32 4 1",
" 	c None",
".	c None",
"+	c #000000",
"@	c #FFFF00",
"................................",
".................++.............",
"................++++............",
"................++++............",
"...++......+++++.++@............",
"..++++.++++@@.....@@............",
"..+++++....@@......@@...........",
"...++......@@......@@...........",
"...@@......@@.......@@..........",
"...@@......@@.......@@..........",
"...@@.......@@......@@@.........",
"...@@.......@@.......@@.........",
"...@@.......@@.......@@@........",
"...@@.......@@........@@........",
"...@@........@@.......@@........",
"...@@........@@........@@.......",
"...@@........@@........@@.......",
"...@@........@@.........@@......",
"...@@.........@@........@@......",
"...@@.........@@........@@@.....",
"@..@@.@.......@@.........@@.....",
"@@.@@@@@......@@..@......@@@....",
"@@++@@@........@@.@@......@@..@.",
".++++@.....@@..@@@@.......@@..@@",
".++++++....@@@@@@@@........@@.@@",
"..++...++++++@@@@@.........@@@@@",
".............++@@@++...@@@@.++@.",
"....................+++@@@@++++.",
"..........................@++++.",
"............................++..",
"................................",
"................................"};
