/* XPM */
static char * editcopy_xpm[] = {
"32 32 189 2",
"  	c None",
". 	c #000000",
"+ 	c #DEDEDE",
"@ 	c #C9C9C9",
"# 	c #FFFFFF",
"$ 	c #101010",
"% 	c #F4F4F4",
"& 	c #898989",
"* 	c #212020",
"= 	c #828282",
"- 	c #C6C6C6",
"; 	c #5C5B5B",
"> 	c #313030",
", 	c #E0E0E0",
"' 	c #424040",
") 	c #ADACAC",
"! 	c #474646",
"~ 	c #3C3B3C",
"{ 	c #313131",
"] 	c #262626",
"^ 	c #1C1B1B",
"/ 	c #111010",
"( 	c #F3F3F3",
"_ 	c #A4A4A4",
": 	c #747474",
"< 	c #FEFDFB",
"[ 	c #F1EDEA",
"} 	c #F0EAE6",
"| 	c #DBD4CE",
"1 	c #C1BAB3",
"2 	c #9C8F86",
"3 	c #FDF9F6",
"4 	c #FBF6F1",
"5 	c #FAF2EC",
"6 	c #EDE4DC",
"7 	c #ECE1D8",
"8 	c #D7CBC0",
"9 	c #676767",
"0 	c #C5C4C3",
"a 	c #5B5957",
"b 	c #807D7A",
"c 	c #C2BCB7",
"d 	c #7F7A75",
"e 	c #C1B6AF",
"f 	c #F7E9DD",
"g 	c #D5C7BC",
"h 	c #868686",
"i 	c #C3C3C3",
"j 	c #FEFBFA",
"k 	c #FDF8F5",
"l 	c #FCF6F0",
"m 	c #F9EFE6",
"n 	c #F8ECE2",
"o 	c #F6E8DD",
"p 	c #F6E5D8",
"q 	c #D4C5B7",
"r 	c #828182",
"s 	c #A3A1A1",
"t 	c #FCF9F4",
"u 	c #A19C97",
"v 	c #5A5552",
"w 	c #7E7873",
"x 	c #9F958D",
"y 	c #7D746E",
"z 	c #F4E1D2",
"A 	c #D4C1B2",
"B 	c #505050",
"C 	c #FEFFFE",
"D 	c #FDFBF9",
"E 	c #FDF8F4",
"F 	c #FBF5F0",
"G 	c #FAF2EA",
"H 	c #F9EFE5",
"I 	c #F8EBE0",
"J 	c #F6E8DC",
"K 	c #F5E5D7",
"L 	c #F4E2D1",
"M 	c #F3DECC",
"N 	c #D2BFAD",
"O 	c #5C5B5A",
"P 	c #C5C3C1",
"Q 	c #807E7C",
"R 	c #5B5755",
"S 	c #7F7B77",
"T 	c #C1B6AE",
"U 	c #59524E",
"V 	c #58514C",
"W 	c #7C736B",
"X 	c #BDAC9E",
"Y 	c #F1DAC7",
"Z 	c #D0BBA9",
"` 	c #2A2929",
" .	c #FEFEFE",
"..	c #FDFBF8",
"+.	c #FCF7F3",
"@.	c #FBF4EE",
"#.	c #FAF1EA",
"$.	c #F8EEE4",
"%.	c #F7EBE0",
"&.	c #F7E7DB",
"*.	c #F5E4D6",
"=.	c #F3E1D1",
"-.	c #F2DDCB",
";.	c #EFD7C1",
">.	c #D0B8A5",
",.	c #818181",
"'.	c #5B5959",
").	c #C4C0BD",
"!.	c #807C79",
"~.	c #5A5653",
"{.	c #595551",
"].	c #9F9690",
"^.	c #7C736A",
"/.	c #BCAC9E",
"(.	c #7B6F65",
"_.	c #7A6D62",
":.	c #EFD3BB",
"<.	c #CEB49E",
"[.	c #4D4D4D",
"}.	c #FFFEFD",
"|.	c #FDFAF8",
"1.	c #FBF6F3",
"2.	c #FAF4EE",
"3.	c #F9F1E9",
"4.	c #F8EDE4",
"5.	c #F7EADF",
"6.	c #F6E7DA",
"7.	c #F4E3D5",
"8.	c #F3E0D0",
"9.	c #F1D9C6",
"0.	c #EFD6C0",
"a.	c #EED3BB",
"b.	c #EDCFB6",
"c.	c #CDB29A",
"d.	c #FDFAF7",
"e.	c #807D7C",
"f.	c #7F7A76",
"g.	c #C0B5AC",
"h.	c #59524D",
"i.	c #9E9289",
"j.	c #7C726A",
"k.	c #BCAB9D",
"l.	c #7B6F64",
"m.	c #564C45",
"n.	c #998778",
"o.	c #786A5C",
"p.	c #ECCBB0",
"q.	c #CCAE94",
"r.	c #FCF7F2",
"s.	c #FAF3ED",
"t.	c #F9F0E8",
"u.	c #F8ECE3",
"v.	c #F7E9DE",
"w.	c #F5E6D9",
"x.	c #F5E3D4",
"y.	c #F4E0CF",
"z.	c #F2DCCA",
"A.	c #F1D9C4",
"B.	c #EFD5C0",
"C.	c #EED2BA",
"D.	c #EDCEB5",
"E.	c #EAC7AA",
"F.	c #CAAA8F",
"G.	c #F9F0E7",
"H.	c #F4E3D4",
"I.	c #F4E0CE",
"J.	c #F2DBC9",
"K.	c #F0D9C4",
"L.	c #EFD5BF",
"M.	c #EDCEB4",
"N.	c #ECCAAF",
"O.	c #EAC7A9",
"P.	c #E8C3A3",
"Q.	c #C9A689",
"R.	c #D9D1C9",
"S.	c #D8CDC6",
"T.	c #D6CBC0",
"U.	c #D6C7BC",
"V.	c #D5C5B8",
"W.	c #D3C2B3",
"X.	c #D3C0AF",
"Y.	c #D1BDAB",
"Z.	c #D0B9A6",
"`.	c #CEB6A2",
" +	c #CDB39D",
".+	c #CDB098",
"++	c #CCAD93",
"@+	c #CAAA8E",
"#+	c #C7A283",
"                                                                ",
"  . . . . . . . . . . . . . .                                   ",
"  . + + + + + + + + + + + . @ .                                 ",
"  . + # # # # # # # # # # $ % & .                               ",
"  . + # # # # # # # # # # * # % @ .                             ",
"  . + # = # = - # = ; = # > , # % & .                           ",
"  . + # # # # # # # # # # ' ) , # % @ .                         ",
"  . + # = ; # = ; - ; = # ! ! ~ { ] ^ /                         ",
"  . + # # # # # # # # # # ( - _ _ = : .                         ",
"  . + # ; _ = # = - ; ; = < [ } | 1 2 . . . . . . . .           ",
"  . + # # # # # # # # # < 3 4 5 6 7 8 . 9 _ + + + . @ .         ",
"  . + # = ; - ; = # = 0 a b c d e f g . h i # # # $ % & .       ",
"  . + # # # # # # # j k l 5 m n o p q . h i # # # * # % @ .     ",
"  . + # ; = - ; r s t b u v w x y z A . B i = = # > , # % & .   ",
"  . + # # # # C D E F G H I J K L M N . h i # # # ' ) , # % @ . ",
"  . + # = ; O P Q R S v T U V W X Y Z . $ ` - = # ! ! ~ { ] ^ / ",
"  . + # #  ...+.@.#.$.%.&.*.=.-.Y ;.>.. h i # # # ( - _ _ = : . ",
"  . + # ,.'.).!.~.{.].U V ^./.(._.:.<.. h [.- ; = # ( ( + - _ . ",
"  . + }.|.1.2.3.4.5.6.7.8.-.9.0.a.b.c.. h i # # # # # # ( ( - . ",
"  . + d.e.R f.{.g.h.i.j.k.l.m.n.o.p.q.. . [.# - ; = - = - # + . ",
"  . + r.s.t.u.v.w.x.y.z.A.B.C.D.p.E.F.. h i # # # # # # # # + . ",
"  . + s.G.u.v.w.H.I.J.K.L.C.M.N.O.P.Q.. . [._ = _ ; = _ = # + . ",
"  . + R.S.T.U.V.W.X.Y.Z.`. +.+++@+Q.#+. h i # # # # # # # # + . ",
"  . . . . . . . . . . . . . . . . . . . B [.; ; - ; ; = - # + . ",
"                          . _ i i i i i i i # # # # # # # # + . ",
"                          . + # = ; - = ; ; _ ; ; = - = = # + . ",
"                          . + # # # # # # # # # # # # # # # + . ",
"                          . + # = ; = ; - ; _ = - = ; _ = # + . ",
"                          . + # # # # # # # # # # # # # # # + . ",
"                          . + # # # # # # # # # # # # # # # + . ",
"                          . + + + + + + + + + + + + + + + + + . ",
"                          . . . . . . . . . . . . . . . . . . . "};
