/* XPM */
static char * editpaste_xpm[] = {
"32 32 382 2",
"  	c None",
". 	c #161613",
"+ 	c #1C1C15",
"@ 	c #252414",
"# 	c #383319",
"$ 	c #383613",
"% 	c #40360F",
"& 	c #443C0F",
"* 	c #1C1C19",
"= 	c #807529",
"- 	c #D8D388",
"; 	c #AEAD48",
"> 	c #96913D",
", 	c #8F883A",
"' 	c #160A04",
") 	c #020204",
"! 	c #FFFFFF",
"~ 	c #F3F1D6",
"{ 	c #E4E2B9",
"] 	c #D1CD9E",
"^ 	c #C0BE8B",
"/ 	c #998B40",
"( 	c #000001",
"_ 	c #000000",
": 	c #EEEEEE",
"< 	c #F0F0F0",
"[ 	c #EFEFEF",
"} 	c #F1F1F1",
"| 	c #EDEDED",
"1 	c #574D0A",
"2 	c #FBFBF8",
"3 	c #F7F6E6",
"4 	c #F2F0CB",
"5 	c #E7E7C6",
"6 	c #CFCC98",
"7 	c #ADAD70",
"8 	c #D6D6D6",
"9 	c #CBCBCB",
"0 	c #C5C5C5",
"a 	c #C3C3C3",
"b 	c #BEBEBE",
"c 	c #BBBBBB",
"d 	c #AFAFAF",
"e 	c #110703",
"f 	c #F4F4F4",
"g 	c #BFBFBF",
"h 	c #BDBDBD",
"i 	c #BABABA",
"j 	c #7E7521",
"k 	c #FCFCF9",
"l 	c #F0EFDF",
"m 	c #E4E3C2",
"n 	c #E3E1B8",
"o 	c #DCD7A9",
"p 	c #CECE99",
"q 	c #C3C290",
"r 	c #B6B373",
"s 	c #A29F5D",
"t 	c #7F7428",
"u 	c #A8A8A8",
"v 	c #A0A0A0",
"w 	c #9C9C9C",
"x 	c #999999",
"y 	c #959595",
"z 	c #8D8D8D",
"A 	c #8B8B8B",
"B 	c #BCBCBC",
"C 	c #A3A3A3",
"D 	c #989898",
"E 	c #A1A1A1",
"F 	c #857629",
"G 	c #FEFEE1",
"H 	c #D1CD9D",
"I 	c #B4B173",
"J 	c #A8A76D",
"K 	c #9F9C5A",
"L 	c #9C9958",
"M 	c #898337",
"N 	c #7B7027",
"O 	c #5F5A11",
"P 	c #717171",
"Q 	c #7F7F7F",
"R 	c #818181",
"S 	c #808080",
"T 	c #858585",
"U 	c #888888",
"V 	c #010103",
"W 	c #B8B8B8",
"X 	c #A9A9A9",
"Y 	c #B2B2B2",
"Z 	c #5E5313",
"` 	c #1B1B18",
" .	c #1A1A18",
"..	c #0B0B08",
"+.	c #0A0A08",
"@.	c #0A0A07",
"#.	c #666666",
"$.	c #676767",
"%.	c #757575",
"&.	c #6B6B6B",
"*.	c #686868",
"=.	c #939393",
"-.	c #9B9B9B",
";.	c #B9B9B9",
">.	c #646464",
",.	c #606060",
"'.	c #5C5C5C",
").	c #595959",
"!.	c #575757",
"~.	c #555555",
"{.	c #5A5A5A",
"].	c #6A6A6A",
"^.	c #6F6F6F",
"/.	c #838383",
"(.	c #9A9A9A",
"_.	c #000002",
":.	c #F3F3F3",
"<.	c #B5B5B5",
"[.	c #B1B1B1",
"}.	c #9F9F9F",
"|.	c #A5A5A5",
"1.	c #ABABAB",
"2.	c #A7A7A7",
"3.	c #383838",
"4.	c #323232",
"5.	c #2E2E2E",
"6.	c #2A2A2A",
"7.	c #282828",
"8.	c #272727",
"9.	c #262626",
"0.	c #202020",
"a.	c #191919",
"b.	c #131313",
"c.	c #0D0D0D",
"d.	c #060606",
"e.	c #0C0803",
"f.	c #767676",
"g.	c #A4A4A4",
"h.	c #ADADAD",
"i.	c #ACACAC",
"j.	c #9E9E9E",
"k.	c #DEDEDE",
"l.	c #C9C9C9",
"m.	c #6E6E6E",
"n.	c #969696",
"o.	c #A2A2A2",
"p.	c #8C8C8C",
"q.	c #363636",
"r.	c #101010",
"s.	c #898989",
"t.	c #F2F2F2",
"u.	c #B4B4B4",
"v.	c #B0B0B0",
"w.	c #343434",
"x.	c #212020",
"y.	c #B3B3B3",
"z.	c #868686",
"A.	c #303030",
"B.	c #828282",
"C.	c #C6C6C6",
"D.	c #5C5B5B",
"E.	c #313030",
"F.	c #E0E0E0",
"G.	c #E8E8E8",
"H.	c #929292",
"I.	c #949494",
"J.	c #A6A6A6",
"K.	c #979797",
"L.	c #909090",
"M.	c #2D2D2D",
"N.	c #424040",
"O.	c #ADACAC",
"P.	c #ECECEC",
"Q.	c #AAAAAA",
"R.	c #848484",
"S.	c #7C7C7C",
"T.	c #474646",
"U.	c #3C3B3C",
"V.	c #313131",
"W.	c #1C1B1B",
"X.	c #111010",
"Y.	c #7E7E7E",
"Z.	c #787878",
"`.	c #747474",
" +	c #E5E5E5",
".+	c #AEAEAE",
"++	c #7A7A7A",
"@+	c #FEFDFB",
"#+	c #F1EDEA",
"$+	c #F0EAE6",
"%+	c #DBD4CE",
"&+	c #C1BAB3",
"*+	c #9C8F86",
"=+	c #E6E6E6",
"-+	c #878787",
";+	c #FDF9F6",
">+	c #FBF6F1",
",+	c #FAF2EC",
"'+	c #EDE4DC",
")+	c #ECE1D8",
"!+	c #D7CBC0",
"~+	c #E2E2E2",
"{+	c #9D9D9D",
"]+	c #C5C4C3",
"^+	c #5B5957",
"/+	c #807D7A",
"(+	c #C2BCB7",
"_+	c #7F7A75",
":+	c #C1B6AF",
"<+	c #F7E9DD",
"[+	c #D5C7BC",
"}+	c #DCDCDC",
"|+	c #7D7D7D",
"1+	c #6C6C6C",
"2+	c #FEFBFA",
"3+	c #FDF8F5",
"4+	c #FCF6F0",
"5+	c #F9EFE6",
"6+	c #F8ECE2",
"7+	c #F6E8DD",
"8+	c #F6E5D8",
"9+	c #D4C5B7",
"0+	c #8F8F8F",
"a+	c #797979",
"b+	c #828182",
"c+	c #A3A1A1",
"d+	c #FCF9F4",
"e+	c #A19C97",
"f+	c #5A5552",
"g+	c #7E7873",
"h+	c #9F958D",
"i+	c #7D746E",
"j+	c #F4E1D2",
"k+	c #D4C1B2",
"l+	c #DBDBDB",
"m+	c #8E8E8E",
"n+	c #6D6D6D",
"o+	c #FEFFFE",
"p+	c #FDFBF9",
"q+	c #FDF8F4",
"r+	c #FBF5F0",
"s+	c #FAF2EA",
"t+	c #F9EFE5",
"u+	c #F8EBE0",
"v+	c #F6E8DC",
"w+	c #F5E5D7",
"x+	c #F4E2D1",
"y+	c #F3DECC",
"z+	c #D2BFAD",
"A+	c #D5D5D5",
"B+	c #222222",
"C+	c #5C5B5A",
"D+	c #C5C3C1",
"E+	c #807E7C",
"F+	c #5B5755",
"G+	c #7F7B77",
"H+	c #C1B6AE",
"I+	c #59524E",
"J+	c #58514C",
"K+	c #7C736B",
"L+	c #BDAC9E",
"M+	c #F1DAC7",
"N+	c #D0BBA9",
"O+	c #D7D7D7",
"P+	c #737373",
"Q+	c #777777",
"R+	c #7B7B7B",
"S+	c #707070",
"T+	c #696969",
"U+	c #1D1D1D",
"V+	c #FEFEFE",
"W+	c #FDFBF8",
"X+	c #FCF7F3",
"Y+	c #FBF4EE",
"Z+	c #FAF1EA",
"`+	c #F8EEE4",
" @	c #F7EBE0",
".@	c #F7E7DB",
"+@	c #F5E4D6",
"@@	c #F3E1D1",
"#@	c #F2DDCB",
"$@	c #EFD7C1",
"%@	c #D0B8A5",
"&@	c #D9D9D9",
"*@	c #5D5D5D",
"=@	c #181818",
"-@	c #5B5959",
";@	c #C4C0BD",
">@	c #807C79",
",@	c #5A5653",
"'@	c #595551",
")@	c #9F9690",
"!@	c #7C736A",
"~@	c #BCAC9E",
"{@	c #7B6F65",
"]@	c #7A6D62",
"^@	c #EFD3BB",
"/@	c #CEB49E",
"(@	c #DADADA",
"_@	c #515151",
":@	c #FFFEFD",
"<@	c #FDFAF8",
"[@	c #FBF6F3",
"}@	c #FAF4EE",
"|@	c #F9F1E9",
"1@	c #F8EDE4",
"2@	c #F7EADF",
"3@	c #F6E7DA",
"4@	c #F4E3D5",
"5@	c #F3E0D0",
"6@	c #F1D9C6",
"7@	c #EFD6C0",
"8@	c #EED3BB",
"9@	c #EDCFB6",
"0@	c #CDB29A",
"a@	c #DDDDDD",
"b@	c #727272",
"c@	c #525252",
"d@	c #4E4E4E",
"e@	c #0E0E0E",
"f@	c #FDFAF7",
"g@	c #807D7C",
"h@	c #7F7A76",
"i@	c #C0B5AC",
"j@	c #59524D",
"k@	c #9E9289",
"l@	c #7C726A",
"m@	c #BCAB9D",
"n@	c #7B6F64",
"o@	c #564C45",
"p@	c #998778",
"q@	c #786A5C",
"r@	c #ECCBB0",
"s@	c #CCAE94",
"t@	c #505050",
"u@	c #535353",
"v@	c #4B4B4B",
"w@	c #434343",
"x@	c #090909",
"y@	c #FCF7F2",
"z@	c #FAF3ED",
"A@	c #F9F0E8",
"B@	c #F8ECE3",
"C@	c #F7E9DE",
"D@	c #F5E6D9",
"E@	c #F5E3D4",
"F@	c #F4E0CF",
"G@	c #F2DCCA",
"H@	c #F1D9C4",
"I@	c #EFD5C0",
"J@	c #EED2BA",
"K@	c #EDCEB5",
"L@	c #EAC7AA",
"M@	c #CAAA8F",
"N@	c #040404",
"O@	c #F9F0E7",
"P@	c #F4E3D4",
"Q@	c #F4E0CE",
"R@	c #F2DBC9",
"S@	c #F0D9C4",
"T@	c #EFD5BF",
"U@	c #EDCEB4",
"V@	c #ECCAAF",
"W@	c #EAC7A9",
"X@	c #E8C3A3",
"Y@	c #C9A689",
"Z@	c #030303",
"`@	c #D9D1C9",
" #	c #D8CDC6",
".#	c #D6CBC0",
"+#	c #D6C7BC",
"@#	c #D5C5B8",
"##	c #D3C2B3",
"$#	c #D3C0AF",
"%#	c #D1BDAB",
"&#	c #D0B9A6",
"*#	c #CEB6A2",
"=#	c #CDB39D",
"-#	c #CDB098",
";#	c #CCAD93",
">#	c #CAAA8E",
",#	c #C7A283",
"                    . + @ # $ % &                               ",
"                  * * * = - ; > , *                             ",
"  ' ' ) ) ) ) ) ) ) ) = ! ~ { ] ^ / ( ) ) ) ) ) ) ) ' '         ",
"_ ! : < [ [ } | | | 1 2 2 3 4 5 6 7 = ( 8 9 0 a b c d d e       ",
"_ f g b b h b c i j k l m n o p q r s t _ u v w x y z A e       ",
"_ < B C C w D E F G H I J K L M M N N N O _ P Q R S T U V       ",
"_ } B u W X Y W Z `  ...+._ @._ _ _ _ _ _ _ #.$.%.&.*.&.V       ",
"_ } h =.D -.W ;.a U S P &.>.,.'.).).!.~.).!.!.{.].^./.(._.      ",
"_ :.b <.B [.}.|.Y 1.2.x 3.4.5.6.7.8.9.9.0.a.b.c.d.e.f.U _.      ",
"_ : i E g.h.i.E j.}.=.T 3.k.k.k.k.k.k.k.k.k.k.k._ l._ m._.      ",
"_ | ;.n.D o.-.y p.A z /.q.k.! ! ! ! ! ! ! ! ! ! r.f s._ )       ",
"_ t.h X u u.Y i v.X w A w.k.! ! ! ! ! ! ! ! ! ! x.! f l._       ",
"_ < c c y.o.o.D p.z.%.^.A.k.! B.! B.C.! B.D.B.! E.F.! f s._     ",
"_ G.<.H.I.x =.J.}.[.K.L.M.k.! ! ! ! ! ! ! ! ! ! N.O.F.! f l._   ",
"_ P.i X Q.[.u [.v n.R.S.6.k.! B.D.! B.D.C.D.B.! T.T.U.V.9.W.X.  ",
"_ P.<.y (.j.(.z T Q Y.Z.8.k.! ! ! ! ! ! ! ! ! ! :.C.g.g.B.`._   ",
"_  +<.U A L.y E .+}.B.++9.k.! D.g.B.! B.C.D.D.B.@+#+$+%+&+*+_   ",
"_ =+Y Q.<.v.Q.D =.w -+S.9.k.! ! ! ! ! ! ! ! ! @+;+>+,+'+)+!+_   ",
"_ ~+d w {+{+o.s.Q R S Z.9.k.! B.D.C.D.B.! B.]+^+/+(+_+:+<+[+_   ",
"_ }+X S.B./.T w -.=.|+1+9.k.! ! ! ! ! ! ! 2+3+4+,+5+6+7+8+9+_   ",
"_ k.d C g.n.s.0+A L.Y.a+9.k.! D.B.C.D.b+c+d+/+e+f+g+h+i+j+k+_   ",
"_ l+i.y =.m+T Y.%.n+m.>.9.k.! ! ! ! o+p+q+r+s+t+u+v+w+x+y+z+_   ",
"_ A+2.p.z m+L.R.s.s.++^.B+k.! B.D.C+D+E+F+G+f+H+I+J+K+L+M+N+_   ",
"_ O+|.P+Q+R+++Q+|+S+T+#.U+k.! ! V+W+X+Y+Z+`+ @.@+@@@#@M+$@%@_   ",
"_ &@C y I.z -+++Q+^.1+*@=@k.! R -@;@>@,@'@)@I+J+!@~@{@]@^@/@_   ",
"_ (@}.S R.|+T Y.R /.{._@b.k.:@<@[@}@|@1@2@3@4@5@#@6@7@8@9@0@_   ",
"_ a@j.Y.Q `.S.P ++b@c@d@e@k.f@g@F+h@'@i@j@k@l@m@n@o@p@q@r@s@_   ",
"_ }._@t@_@t@u@u@c@d@v@w@x@k.y@z@A@B@C@D@E@F@G@H@I@J@K@r@L@M@_   ",
"  ' ' ) ) ) ) ) V V V V N@k.z@O@B@C@D@P@Q@R@S@T@J@U@V@W@X@Y@_   ",
"                        Z@k.`@ #.#+#@###$#%#&#*#=#-#;#>#Y@,#_   ",
"                        _ _ _ _ _ _ _ _ _ _ _ _ _ _ _ _ _ _ _   ",
"                                                                "};
