/* XPM */
static char * editcut_xpm[] = {
"32 32 18 1",
" 	g None",
".	g #000000",
"+	g #FFFFFF",
"@	g #C3C3C3",
"#	g #030303",
"$	g #FCFCFC",
"%	g #060606",
"&	g #161616",
"*	g #0D0D0D",
"=	g #010101",
"-	g #FEFEFE",
";	g #F6F6F6",
">	g #121212",
",	g #A0A0A0",
"'	g #020202",
")	g #040404",
"!	g #F1F1F1",
"~	g #F2F2F2",
"                                ",
"                                ",
"   ....                         ",
"  .......                       ",
" ...   ...                  ... ",
" ..      ..               ..++@.",
" ..       ..             .@++@. ",
" ...       ..          .#+$+@.  ",
"  ...      ..         ..+++@.   ",
"   .%.     ..        .@+++@.    ",
"    ....  ....     ..++++@.     ",
"      ........    ..++++@.      ",
"        .......  .&++++@.       ",
"           ....@.*++++@.        ",
"             .@.=+-++@.         ",
"              .=++++@.          ",
"              ..+.;+>           ",
"             ....++.,.          ",
"           ........,@@.         ",
"        ......' ..,@++@.        ",
"      .......#   ..++++@.       ",
"    ....  ....    ..++++@.      ",
"   .=.     ).      ..+!~+@.     ",
"  ...      ..        .@+$+@.    ",
" ...       ..         ..+++@.   ",
" ..       ..           ..+++@.  ",
" ..      ..              .@++@. ",
" ...   ...                ..++@.",
"  .......                   ... ",
"   ....                         ",
"                                ",
"                                "};
