/* XPM */
static char * frac_xpm[] = {
"32 32 16 1",
" 	c None",
".	c #000000",
"+	c #090909",
"@	c #030303",
"#	c #060606",
"$	c #010101",
"%	c #121212",
"&	c #080808",
"*	c #0A0A0A",
"=	c #050505",
"-	c #0D0D0D",
";	c #040404",
">	c #020202",
",	c #800080",
"'	c #181818",
")	c #0C0C0C",
"                                ",
"              ...  ...          ",
"             ....+@# $.         ",
"            .%  .&* ...         ",
"            .    *.  .          ",
"                ..              ",
"                ..              ",
"                ..              ",
"            .  .=    .          ",
"           ... ...  ..          ",
"           .. -;.....           ",
"            ...  >..            ",
"                                ",
"                                ",
"    ,,,,,,,,,,,,,,,,,,,,,,,,,   ",
"    ,,,,,,,,,,,,,,,,,,,,,,,,,   ",
"                                ",
"                                ",
"            ..'    ..           ",
"           .. ..   ..           ",
"           .  ..   ..           ",
"              ..  ..            ",
"             ...  .=            ",
"             ..   .$            ",
"             ..   ..            ",
"             .   ..             ",
"             .. ...             ",
"              .....             ",
"            .   .)              ",
"           ...  .;              ",
"           ..  ..               ",
"            ...&                "};
