/* XPM */
static char * parallel_xpm[] = {
"32 32 4 1",
" 	c None",
".	c #FF0000",
"+	c None",
"@	c #000000",
"                                ",
"                                ",
"                                ",
"                                ",
"                    .           ",
"                     ..         ",
"                       ..       ",
"                        ..      ",
"                     ...+.      ",
"             @@   ...   .       ",
"     .      @@@@..      .       ",
"    .       @@@@       .        ",
"    .     ...@@        .        ",
"   .   ...                      ",
"   ....                         ",
"  ..                            ",
"   ..                           ",
"     ..                  @@     ",
"       ..               @@@@    ",
"                        @@@@    ",
"                       @@@@     ",
"                    @@@         ",
"                 @@@            ",
"               @@               ",
"       @@   @@@                 ",
"      @@@@@@                    ",
"      @@@@                      ",
"       @@                       ",
"                                ",
"                                ",
"                                ",
"                                "};
