/* XPM */
static char * redo_xpm[] = {
"32 32 105 2",
"  	c None",
". 	c #020202",
"+ 	c #5A8045",
"@ 	c #ABD397",
"# 	c #CDE2C1",
"$ 	c #E5EEDF",
"% 	c #567F42",
"& 	c #A6C399",
"* 	c #F5F9F4",
"= 	c #2A7410",
"- 	c #527C3E",
"; 	c #A8C395",
"> 	c #B8E1A1",
", 	c #91D56B",
"' 	c #79BE53",
") 	c #CEE1C2",
"! 	c #588144",
"~ 	c #47AB29",
"{ 	c #3FA21C",
"] 	c #4AA61E",
"^ 	c #8ED46C",
"/ 	c #B7E0A2",
"( 	c #E4F1DE",
"_ 	c #FAFCF9",
": 	c #4BA529",
"< 	c #52B135",
"[ 	c #4DBA24",
"} 	c #4BA92B",
"| 	c #77BC55",
"1 	c #9AC589",
"2 	c #E1F0DB",
"3 	c #2D7311",
"4 	c #5D8748",
"5 	c #52A52B",
"6 	c #53B529",
"7 	c #61BC3A",
"8 	c #5BC930",
"9 	c #65CD3C",
"0 	c #6FD63D",
"a 	c #46B616",
"b 	c #42A01E",
"c 	c #7BBE61",
"d 	c #9EC98F",
"e 	c #F8FCF7",
"f 	c #2D6810",
"g 	c #4D8F27",
"h 	c #457D2C",
"i 	c #34751D",
"j 	c #28720E",
"k 	c #319412",
"l 	c #70D340",
"m 	c #41A616",
"n 	c #56B418",
"o 	c #2E7515",
"p 	c #E4ECDF",
"q 	c #1F3B12",
"r 	c #6EAC4D",
"s 	c #4C9F25",
"t 	c #2B6A0E",
"u 	c #1C4408",
"v 	c #102706",
"w 	c #329214",
"x 	c #F4F9F2",
"y 	c #8ED183",
"z 	c #1B4309",
"A 	c #79D54B",
"B 	c #557E43",
"C 	c #B1E7AB",
"D 	c #8FC074",
"E 	c #40A513",
"F 	c #275F0B",
"G 	c #8AC963",
"H 	c #B2ECA1",
"I 	c #92CC7E",
"J 	c #568C43",
"K 	c #30790F",
"L 	c #349014",
"M 	c #41AE20",
"N 	c #51A539",
"O 	c #2E8612",
"P 	c #34A814",
"Q 	c #4FB22E",
"R 	c #1F540C",
"S 	c #083908",
"T 	c #5BC732",
"U 	c #5CC22F",
"V 	c #57B92D",
"W 	c #1C500C",
"X 	c #58BB37",
"Y 	c #5EBD35",
"Z 	c #000000",
"` 	c #0E2205",
" .	c #82D753",
"..	c #87D959",
"+.	c #72D143",
"@.	c #62C437",
"#.	c #15260E",
"$.	c #15260F",
"%.	c #163E09",
"&.	c #172A10",
"*.	c #1C3410",
"=.	c #1E3B11",
"-.	c #214111",
";.	c #254615",
">.	c #2C4B1D",
"                                                                ",
"                                                                ",
"                                                                ",
"                    . . . . . .                                 ",
"              . . . + @ # $ # + . .                             ",
"          . . % & # $ $ $ $ $ $ * = . .                         ",
"        . - ; $ $ > , ' ' ' , > $ ) * = . .                     ",
"      . ! ; $ > ' ~ { { { { { ] ' ^ / ( _ = .               .   ",
"      . ; $ > ' ~ : < [ [ [ < ] { } | 1 2 _ 3 .           . .   ",
"    . 4 $ > ' 5 6 7 8 9 0 0 0 8 a ~ b c d 2 e = .       . f .   ",
"    . $ , ' 6 g h i j j j j j k l 8 a m n d 2 * o .   . f p .   ",
"    q @ r s t u u v . . . . . u u w l 8 m n 1 ( x o . f p y .   ",
"  . $ ' g t u v . .           . . z j w A m n | / p B p C D .   ",
"  . @ E F u v .                   . . j w A m n G G H I D J .   ",
"  . ' K u v .                         . z L A m M M M M N f .   ",
"  . E F v v .                           . z O l M P P P Q R .   ",
"  . F u v .                               . S T U M M M V W .   ",
"  . u v v .                             . f p y X X X X Y W .   ",
"    Z v ` Z                           . f p y  ...+.@.@.Y W .   ",
"    Z #.$.$.Z                       . f p y J f W W W W W %..   ",
"      Z &.&.Z                     . . . . . . . . . . . . . .   ",
"      Z *.*.*.Z                                                 ",
"        Z =.=.=.Z                                               ",
"          Z -.-.-.Z                                             ",
"            Z ;.;.;.Z                                           ",
"              Z Z >.>.Z Z                                       ",
"                  Z Z Z >.Z Z                                   ",
"                        Z Z Z Z Z                               ",
"                                                                ",
"                                                                ",
"                                                                ",
"                                                                "};
