/* XPM */
static char * rsup_xpm[] = {
"32 32 3 1",
" 	c None",
".	c #800080",
"+	c #000000",
"                                ",
"                      ...  ...  ",
"                     ....... .. ",
"                    ..  ... ... ",
"                    .    ..  .  ",
"                        ..      ",
"                        ..      ",
"                        ..      ",
"                    .  ..    .  ",
"                   ... ...  ..  ",
"                   .. .......   ",
"                    ...  ...    ",
" ++++++++++++++++++             ",
" ++++++++++++++++++             ",
" ++              ++             ",
" ++              ++             ",
" ++              ++             ",
" ++              ++             ",
" ++              ++             ",
" ++              ++             ",
" ++              ++             ",
" ++              ++             ",
" ++              ++             ",
" ++              ++             ",
" ++              ++             ",
" ++              ++             ",
" ++              ++             ",
" ++              ++             ",
" ++++++++++++++++++             ",
" ++++++++++++++++++             ",
"                                ",
"                                "};
