/* XPM */
static char * sqrt_xpm[] = {
"32 32 9 1",
" 	c None",
".	c #800080",
"+	c #1A1A1A",
"@	c #000000",
"#	c #090909",
"$	c #0E0E0E",
"%	c #060606",
"&	c #010101",
"*	c #070707",
"                                ",
"                                ",
"                                ",
"              ..................",
"             ...               .",
"             ..                .",
"             ..                 ",
"             ..                 ",
"            ...                 ",
"            ..                  ",
"            ..     +@@@   @@@@  ",
"            ..    @# @@@ $@  @@ ",
"           ...   @%   @@@@  &@@ ",
"   ..      ..    @    @@@   @@@ ",
"  ...      ..    @     @*    @  ",
" ....      ..         @@%       ",
" . ...    ...         @@        ",
"    ..    ..          @@        ",
"    ..    ..         %@@        ",
"    ...   ..    @    *@     @   ",
"     ..  ...   @@@   @@@    @   ",
"     ..  ..    @@&  @@@@   %@   ",
"     ... ..    @@  @$ @@@ #@    ",
"      .. ..     @@@@   @@@+     ",
"      .....                     ",
"      ....                      ",
"       ...                      ",
"       ...                      ",
"        .                       ",
"        .                       ",
"                                ",
"                                "};
