/* XPM */
static char * translate_xpm[] = {
"32 32 4 1",
" 	c None",
".	c None",
"+	c #FF0000",
"@	c #000000",
"................................",
"................................",
"..........................+.....",
"..........................+.....",
".........................+.+....",
".........................+.+....",
"........................+...+...",
"........................+++++...",
".......................+.....+..",
".......................+.....+..",
"......................+.......+.",
"......................+.......+.",
"............@@@.................",
"...............@@@@.............",
"................@@@.............",
"...............@..@.............",
".............@@..@..............",
"............@....@..............",
"..........@@.....@..............",
"....@....@.......@..............",
"....@...........................",
"...@.@..........................",
"...@.@..........................",
"..@...@.........................",
"..@@@@@.........................",
".@.....@........................",
".@.....@........................",
"@.......@.......................",
"@.......@.......................",
"................................",
"................................",
"................................"};
