/* XPM */
static char * undo_xpm[] = {
"32 32 105 2",
"  	c None",
". 	c #020202",
"+ 	c #5A8045",
"@ 	c #CDE2C1",
"# 	c #E5EEDF",
"$ 	c #ABD397",
"% 	c #29760E",
"& 	c #F5F9F4",
"* 	c #A6C399",
"= 	c #567F42",
"- 	c #B8E1A1",
"; 	c #91D56B",
"> 	c #79BE53",
", 	c #A8C395",
"' 	c #527C3E",
") 	c #FAFCF9",
"! 	c #E3F1DE",
"~ 	c #4AA61E",
"{ 	c #3FA21C",
"] 	c #47AB29",
"^ 	c #588144",
"/ 	c #2C750F",
"( 	c #E0F1DA",
"_ 	c #9AC688",
": 	c #52B135",
"< 	c #4DBA24",
"[ 	c #4BA529",
"} 	c #2B6A0E",
"| 	c #F8FCF7",
"1 	c #9CCA8E",
"2 	c #79BE61",
"3 	c #46B616",
"4 	c #5BC930",
"5 	c #6FD63D",
"6 	c #65CD3C",
"7 	c #61BC3A",
"8 	c #53B529",
"9 	c #52A52B",
"0 	c #5D8748",
"a 	c #457E1C",
"b 	c #2D7713",
"c 	c #52B616",
"d 	c #41A814",
"e 	c #70D340",
"f 	c #319412",
"g 	c #28720E",
"h 	c #34751D",
"i 	c #457D2C",
"j 	c #4D8F27",
"k 	c #D4E4CB",
"l 	c #1E670D",
"m 	c #237313",
"n 	c #F1F7F0",
"o 	c #DFEFDC",
"p 	c #8FC486",
"q 	c #1C4408",
"r 	c #102706",
"s 	c #4C9F25",
"t 	c #6EAC4D",
"u 	c #1F3B12",
"v 	c #E0EBDC",
"w 	c #507D41",
"x 	c #AEDF9F",
"y 	c #68BC51",
"z 	c #34A814",
"A 	c #79D54B",
"B 	c #478F2F",
"C 	c #92C77B",
"D 	c #88CD6D",
"E 	c #80C860",
"F 	c #275F0B",
"G 	c #40A513",
"H 	c #ECF3E8",
"I 	c #88BE71",
"J 	c #47B31D",
"K 	c #219212",
"L 	c #30790F",
"M 	c #49882E",
"N 	c #9ACF85",
"O 	c #1F8810",
"P 	c #174408",
"Q 	c #A4D98F",
"R 	c #5CC22F",
"S 	c #073A0B",
"T 	c #3E7C22",
"U 	c #CCE5C2",
"V 	c #4BB626",
"W 	c #26680C",
"X 	c #84C868",
"Y 	c #5DC032",
"Z 	c #6AC936",
"` 	c #83D44C",
" .	c #87D959",
"..	c #7ED345",
"+.	c #000000",
"@.	c #0E2205",
"#.	c #1C4909",
"$.	c #16260F",
"%.	c #16260E",
"&.	c #172A10",
"*.	c #1C3410",
"=.	c #1E3B11",
"-.	c #214211",
";.	c #254616",
">.	c #2C4C1D",
"                                                                ",
"                                                                ",
"                                                                ",
"                                . . . . . .                     ",
"                            . . + @ # @ $ + . . .               ",
"                        . . % & # # # # # # @ * = . .           ",
"                    . . % & @ # - ; > > > ; - # # , ' .         ",
"  .               . % ) ! - ; > ~ { { { { { ] > - # , ^ .       ",
"  . .           . / ) ( _ > ] { ~ : < < < : [ ] > - # , .       ",
"  . } .       . % | ( 1 2 { ] 3 4 5 5 5 6 4 7 8 9 > - # 0 .     ",
"  . a } .   . b & ( 1 c d 3 4 e f g g g g g h i j 8 > ; # .     ",
"  . a k l . m n o p 3 d 4 e f q q . . . . . r q q } s t $ u     ",
"  . a k v w v x y 3 z A f q q . .           . . r q } j > # .   ",
"  . B v C D E E 3 z A f q . .                   . r q F G $ .   ",
"  . B H I 3 z z J A K q .                         . r q L > .   ",
"  . M H N J z J e O P .                           . r r F G .   ",
"  . M H Q J z R 4 S .                               . r q F .   ",
"  . T U Q V V V V A l .                             . r r q .   ",
"  . W I X Y Z `  .R ..} .                           +.@.r +.    ",
"  . #.l l l l l l l l a } .                       +.$.$.%.+.    ",
"  . . . . . . . . . . . . . .                     +.&.&.+.      ",
"                                                +.*.*.*.+.      ",
"                                              +.=.=.=.+.        ",
"                                            +.-.-.-.+.          ",
"                                          +.;.;.;.+.            ",
"                                      +.+.>.>.+.+.              ",
"                                  +.+.>.+.+.+.                  ",
"                              +.+.+.+.+.                        ",
"                                                                ",
"                                                                ",
"                                                                ",
"                                                                "};
