/* XPM */
static char * vector_xpm[] = {
"32 32 4 1",
" 	c None",
".	c None",
"+	c #FFFF00",
"@	c #000000",
"................................",
"................................",
"................................",
"................................",
"................................",
"................................",
".............+++++..............",
".............++++++++++...@@....",
"..................+++++++@@@@...",
".......................++@@@@...",
"........................++@@....",
"......................++++++....",
".....................+++..++....",
"...................++++...++....",
".................++++....++.....",
"................++++.....++.....",
"..............++++.......++.....",
"............++++.........++.....",
"...........++++..........++.....",
".........++++...........++......",
"........+++.............++......",
"...@@.++++..............++......",
"..@@@@++................++......",
"..@@@@..................++......",
"...@@...........................",
"................................",
"................................",
"................................",
"................................",
"................................",
"................................",
"................................"};
