/* XPM */
static char * zoomFit_xpm[] = {
"32 32 5 1",
".	c None",
"	c #FFFFFF",
"+	c #000000",
"@	c #7F7F7F",
"#	c #007FFF",
"................................",
"................................",
"................................",
".....+++++++....................",
"....+.......+...................",
"...+..@@.....+..................",
"..+..@........+.................",
"..+.@.........+.................",
"..+.@.........+.................",
"..+...........+.................",
"..+...........+.................",
"..+...........+.................",
"..+...........+.................",
"...+.........+..................",
"....+.......+...................",
".....+++++++..+++++++++++++++...",
"......+   +...+......+......+...",
"......+++++...+.....+++.....+...",
"......+###+...+....+++++....+...",
"......+###+...+......+......+...",
"......+###+...+..+...+...+..+...",
"......+###+...+.++...+...++.+...",
"......+###+...+++++++++++++++...",
"......+###+...+.++...+...++.+...",
"......+###+...+..+...+...+..+...",
"......+###+...+......+......+...",
"......+###+...+....+++++....+...",
".......+++....+.....+++.....+...",
"..............+......+......+...",
"..............+++++++++++++++...",
"................................",
"................................"};
