/* XPM */
static char * zoom_xpm[] = {
"32 32 5 1",
" 	c None",
".	c #000000",
"+	c #7F7F7F",
"@	c #FFFFFF",
"#	c #007FFF",
"                                ",
"                                ",
"                                ",
"     .......                    ",
"    .       .                   ",
"   .  ++     .                  ",
"  .  +        .                 ",
"  . +         .                 ",
"  . +         .                 ",
"  .           .                 ",
"  .           .                 ",
"  .           .                 ",
"  .           .                 ",
"   .         .                  ",
"    .       .                   ",
"     .......         .          ",
"      .@@@.          .          ",
"      .....          .          ",
"      .###.          .          ",
"      .###.      .........      ",
"      .###.          .          ",
"      .###.          .          ",
"      .###.          .          ",
"      .###.          .          ",
"      .###.                     ",
"      .###.                     ",
"      .###.                     ",
"       ...                      ",
"                 .........      ",
"                                ",
"                                ",
"                                "};
